<svg width="76" height="28" viewBox="0 0 76 28" fill="none" xmlns="http://www.w3.org/2000/svg">
<rect x="0.444336" width="74.6667" height="28" rx="1.94444" fill="#D88511"/>
<path d="M20.9717 13.5618C21.5825 13.68 22.0702 13.9017 22.4347 14.2268C22.7992 14.5519 22.9815 15.0543 22.9815 15.7341C22.9815 16.7193 22.5825 17.5124 21.7845 18.1133C20.9963 18.7044 19.7057 19 17.9127 19H14.366L15.7995 8.71467H18.9176C20.3067 8.71467 21.3658 8.89693 22.0948 9.26144C22.8337 9.62596 23.2031 10.2368 23.2031 11.0939C23.2031 11.7835 22.9913 12.3254 22.5677 12.7194C22.144 13.1135 21.612 13.3943 20.9717 13.5618ZM18.7255 12.6899C19.287 12.6899 19.6565 12.5766 19.8338 12.35C20.021 12.1136 20.1146 11.8229 20.1146 11.4781C20.1146 11.2417 20.021 11.0693 19.8338 10.9609C19.6565 10.8525 19.356 10.7983 18.9323 10.7983H18.4742L18.2082 12.6899H18.7255ZM18.2082 16.8572C18.8683 16.8572 19.3166 16.739 19.553 16.5026C19.7993 16.2563 19.9225 15.9114 19.9225 15.4681C19.9225 14.8967 19.5038 14.611 18.6663 14.611H17.9422L17.6319 16.8572H18.2082ZM26.9471 19.2956C25.8634 19.2956 25.0161 18.9951 24.4053 18.3941C23.7945 17.7931 23.4891 16.9557 23.4891 15.8819C23.4891 15.0248 23.6369 14.212 23.9324 13.4436C24.2378 12.6751 24.7304 12.0446 25.4102 11.552C26.0998 11.0594 26.9865 10.8131 28.0702 10.8131C29.1539 10.8131 30.0012 11.1185 30.612 11.7293C31.2327 12.3303 31.543 13.1529 31.543 14.1972C31.543 15.0543 31.3903 15.8671 31.0849 16.6356C30.7893 17.404 30.2967 18.0394 29.6071 18.5419C28.9273 19.0443 28.0407 19.2956 26.9471 19.2956ZM27.1835 17.1971C27.7451 17.1971 28.1244 16.8621 28.3214 16.1922C28.5185 15.5124 28.617 14.7834 28.617 14.0051C28.617 13.6209 28.5529 13.345 28.4249 13.1776C28.2968 13.0002 28.0998 12.9116 27.8338 12.9116C27.2821 12.9116 26.9077 13.2416 26.7107 13.9017C26.5136 14.5519 26.4151 15.2612 26.4151 16.0297C26.4151 16.4434 26.4742 16.7439 26.5924 16.9311C26.7205 17.1084 26.9175 17.1971 27.1835 17.1971ZM35.4039 19.2956C34.3202 19.2956 33.4729 18.9951 32.8621 18.3941C32.2513 17.7931 31.9459 16.9557 31.9459 15.8819C31.9459 15.0248 32.0937 14.212 32.3892 13.4436C32.6946 12.6751 33.1872 12.0446 33.867 11.552C34.5566 11.0594 35.4433 10.8131 36.527 10.8131C37.6107 10.8131 38.458 11.1185 39.0688 11.7293C39.6895 12.3303 39.9998 13.1529 39.9998 14.1972C39.9998 15.0543 39.8471 15.8671 39.5417 16.6356C39.2461 17.404 38.7535 18.0394 38.0639 18.5419C37.3841 19.0443 36.4975 19.2956 35.4039 19.2956ZM35.6404 17.1971C36.2019 17.1971 36.5812 16.8621 36.7782 16.1922C36.9753 15.5124 37.0738 14.7834 37.0738 14.0051C37.0738 13.6209 37.0098 13.345 36.8817 13.1776C36.7536 13.0002 36.5566 12.9116 36.2906 12.9116C35.7389 12.9116 35.3645 13.2416 35.1675 13.9017C34.9704 14.5519 34.8719 15.2612 34.8719 16.0297C34.8719 16.4434 34.931 16.7439 35.0492 16.9311C35.1773 17.1084 35.3744 17.1971 35.6404 17.1971ZM44.2745 10.8131C44.8656 10.8131 45.4272 10.9067 45.9592 11.0939C46.4912 11.2811 46.9493 11.5323 47.3335 11.8476L46.1069 13.3844C45.8311 13.217 45.5306 13.084 45.2055 12.9854C44.8902 12.8869 44.5898 12.8377 44.3041 12.8377C43.8115 12.8377 43.5652 12.9707 43.5652 13.2367C43.5652 13.3352 43.5996 13.414 43.6686 13.4731C43.7376 13.5322 43.8903 13.611 44.1267 13.7096C44.3632 13.7982 44.6686 13.9017 45.0429 14.0199C46.3434 14.4534 46.9936 15.2563 46.9936 16.4287C46.9936 16.9114 46.8803 17.3695 46.6537 17.803C46.4271 18.2266 46.038 18.5813 45.4863 18.867C44.9346 19.1527 44.2055 19.2956 43.2992 19.2956C42.5997 19.2956 41.9347 19.1675 41.3042 18.9113C40.6736 18.6552 40.1761 18.3202 39.8116 17.9064L41.2007 16.4434C41.8214 16.9951 42.5209 17.271 43.2992 17.271C43.8804 17.271 44.1711 17.1084 44.1711 16.7833C44.1711 16.6651 44.1316 16.5715 44.0528 16.5026C43.9839 16.4336 43.8558 16.3597 43.6686 16.2809C43.4913 16.2021 43.1612 16.0789 42.6785 15.9114C42.0184 15.675 41.5258 15.3696 41.2007 14.9952C40.8855 14.6209 40.7278 14.1332 40.7278 13.5322C40.7278 13.0199 40.8658 12.5569 41.1416 12.1431C41.4273 11.7293 41.8362 11.4042 42.3682 11.1678C42.91 10.9313 43.5455 10.8131 44.2745 10.8131ZM51.3744 17.005C51.5912 17.005 51.8424 16.941 52.1281 16.8129L52.8374 18.6749C52.5025 18.8719 52.1133 19.0246 51.67 19.133C51.2266 19.2414 50.8178 19.2956 50.4434 19.2956C49.6454 19.2956 49.0346 19.0837 48.611 18.6601C48.1972 18.2365 47.9903 17.6207 47.9903 16.8129C47.9903 16.675 48.01 16.4287 48.0494 16.074L48.478 13.0889H47.547L47.813 11.1087H48.877L49.3499 9.40922L51.8916 9.11367L51.6109 11.1087H53.3842L52.7931 13.0889H51.3449L50.9311 16.074C50.9114 16.2513 50.9015 16.3696 50.9015 16.4287C50.9015 16.6356 50.9409 16.7833 51.0197 16.872C51.0986 16.9607 51.2168 17.005 51.3744 17.005ZM58.0952 19C57.1593 21.1674 55.3761 22.2905 52.7456 22.3693L52.6865 20.3743C53.4451 20.3054 54.0214 20.1674 54.4155 19.9606C54.8194 19.7635 55.1593 19.4433 55.4352 19H54.4303L53.322 11.1087H56.3071L56.4696 17.1971L58.4794 11.1087H61.4793L58.0952 19Z" fill="white"/>
</svg>
