<svg width="49" height="18" viewBox="0 0 49 18" fill="none" xmlns="http://www.w3.org/2000/svg">
<rect x="0.75" width="48" height="18" rx="1.25" fill="#D88511"/>
<path d="M14.0535 9.004C14.4462 9.08 14.7597 9.2225 14.994 9.4315C15.2283 9.6405 15.3455 9.9635 15.3455 10.4005C15.3455 11.0338 15.089 11.5437 14.576 11.93C14.0693 12.31 13.2397 12.5 12.087 12.5H9.807L10.7285 5.888H12.733C13.626 5.888 14.3068 6.00517 14.7755 6.2395C15.2505 6.47383 15.488 6.8665 15.488 7.4175C15.488 7.86083 15.3518 8.20917 15.0795 8.4625C14.8072 8.71583 14.4652 8.89633 14.0535 9.004ZM12.6095 8.4435C12.9705 8.4435 13.208 8.37067 13.322 8.225C13.4423 8.073 13.5025 7.88617 13.5025 7.6645C13.5025 7.5125 13.4423 7.40167 13.322 7.332C13.208 7.26233 13.0148 7.2275 12.7425 7.2275H12.448L12.277 8.4435H12.6095ZM12.277 11.1225C12.7013 11.1225 12.9895 11.0465 13.1415 10.8945C13.2998 10.7362 13.379 10.5145 13.379 10.2295C13.379 9.86217 13.1098 9.6785 12.5715 9.6785H12.106L11.9065 11.1225H12.277ZM17.8948 12.69C17.1982 12.69 16.6535 12.4968 16.2608 12.1105C15.8682 11.7242 15.6718 11.1858 15.6718 10.4955C15.6718 9.9445 15.7668 9.422 15.9568 8.928C16.1532 8.434 16.4698 8.02867 16.9068 7.712C17.3502 7.39533 17.9202 7.237 18.6168 7.237C19.3135 7.237 19.8582 7.43333 20.2508 7.826C20.6498 8.21233 20.8493 8.74117 20.8493 9.4125C20.8493 9.9635 20.7512 10.486 20.5548 10.98C20.3648 11.474 20.0482 11.8825 19.6048 12.2055C19.1678 12.5285 18.5978 12.69 17.8948 12.69ZM18.0468 11.341C18.4078 11.341 18.6517 11.1257 18.7783 10.695C18.905 10.258 18.9683 9.78933 18.9683 9.289C18.9683 9.042 18.9272 8.86467 18.8448 8.757C18.7625 8.643 18.6358 8.586 18.4648 8.586C18.1102 8.586 17.8695 8.79817 17.7428 9.2225C17.6162 9.6405 17.5528 10.0965 17.5528 10.5905C17.5528 10.8565 17.5908 11.0497 17.6668 11.17C17.7492 11.284 17.8758 11.341 18.0468 11.341ZM23.3314 12.69C22.6347 12.69 22.09 12.4968 21.6974 12.1105C21.3047 11.7242 21.1084 11.1858 21.1084 10.4955C21.1084 9.9445 21.2034 9.422 21.3934 8.928C21.5897 8.434 21.9064 8.02867 22.3434 7.712C22.7867 7.39533 23.3567 7.237 24.0534 7.237C24.75 7.237 25.2947 7.43333 25.6874 7.826C26.0864 8.21233 26.2859 8.74117 26.2859 9.4125C26.2859 9.9635 26.1877 10.486 25.9914 10.98C25.8014 11.474 25.4847 11.8825 25.0414 12.2055C24.6044 12.5285 24.0344 12.69 23.3314 12.69ZM23.4834 11.341C23.8444 11.341 24.0882 11.1257 24.2149 10.695C24.3415 10.258 24.4049 9.78933 24.4049 9.289C24.4049 9.042 24.3637 8.86467 24.2814 8.757C24.199 8.643 24.0724 8.586 23.9014 8.586C23.5467 8.586 23.306 8.79817 23.1794 9.2225C23.0527 9.6405 22.9894 10.0965 22.9894 10.5905C22.9894 10.8565 23.0274 11.0497 23.1034 11.17C23.1857 11.284 23.3124 11.341 23.4834 11.341ZM29.0339 7.237C29.4139 7.237 29.7749 7.29717 30.1169 7.4175C30.4589 7.53783 30.7534 7.69933 31.0004 7.902L30.2119 8.89C30.0346 8.78233 29.8414 8.69683 29.6324 8.6335C29.4297 8.57017 29.2366 8.5385 29.0529 8.5385C28.7362 8.5385 28.5779 8.624 28.5779 8.795C28.5779 8.85833 28.6001 8.909 28.6444 8.947C28.6887 8.985 28.7869 9.03567 28.9389 9.099C29.0909 9.156 29.2872 9.2225 29.5279 9.2985C30.3639 9.57717 30.7819 10.0933 30.7819 10.847C30.7819 11.1573 30.7091 11.4518 30.5634 11.7305C30.4177 12.0028 30.1676 12.2308 29.8129 12.4145C29.4582 12.5982 28.9896 12.69 28.4069 12.69C27.9572 12.69 27.5297 12.6077 27.1244 12.443C26.7191 12.2783 26.3992 12.063 26.1649 11.797L27.0579 10.8565C27.4569 11.2112 27.9066 11.3885 28.4069 11.3885C28.7806 11.3885 28.9674 11.284 28.9674 11.075C28.9674 10.999 28.9421 10.9388 28.8914 10.8945C28.8471 10.8502 28.7647 10.8027 28.6444 10.752C28.5304 10.7013 28.3182 10.6222 28.0079 10.5145C27.5836 10.3625 27.2669 10.1662 27.0579 9.9255C26.8552 9.68483 26.7539 9.37133 26.7539 8.985C26.7539 8.65567 26.8426 8.358 27.0199 8.092C27.2036 7.826 27.4664 7.617 27.8084 7.465C28.1567 7.313 28.5652 7.237 29.0339 7.237ZM33.5981 11.2175C33.7375 11.2175 33.899 11.1763 34.0826 11.094L34.5386 12.291C34.3233 12.4177 34.0731 12.5158 33.7881 12.5855C33.5031 12.6552 33.2403 12.69 32.9996 12.69C32.4866 12.69 32.094 12.5538 31.8216 12.2815C31.5556 12.0092 31.4226 11.6133 31.4226 11.094C31.4226 11.0053 31.4353 10.847 31.4606 10.619L31.7361 8.7H31.1376L31.3086 7.427H31.9926L32.2966 6.3345L33.9306 6.1445L33.7501 7.427H34.8901L34.5101 8.7H33.5791L33.3131 10.619C33.3005 10.733 33.2941 10.809 33.2941 10.847C33.2941 10.98 33.3195 11.075 33.3701 11.132C33.4208 11.189 33.4968 11.2175 33.5981 11.2175ZM37.9186 12.5C37.3169 13.8933 36.1706 14.6153 34.4796 14.666L34.4416 13.3835C34.9293 13.3392 35.2998 13.2505 35.5531 13.1175C35.8128 12.9908 36.0313 12.785 36.2086 12.5H35.5626L34.8501 7.427H36.7691L36.8736 11.341L38.1656 7.427H40.0941L37.9186 12.5Z" fill="white"/>
</svg>
