<svg width="96" height="36" viewBox="0 0 96 36" fill="none" xmlns="http://www.w3.org/2000/svg">
<rect width="96" height="36" rx="2.5" fill="#D88511"/>
<path d="M26.607 17.508C27.3923 17.66 28.0193 17.945 28.488 18.363C28.9567 18.781 29.191 19.427 29.191 20.301C29.191 21.5677 28.678 22.5873 27.652 23.36C26.6387 24.12 24.9793 24.5 22.674 24.5H18.114L19.957 11.276H23.966C25.752 11.276 27.1137 11.5103 28.051 11.979C29.001 12.4477 29.476 13.233 29.476 14.335C29.476 15.2217 29.2037 15.9183 28.659 16.425C28.1143 16.9317 27.4303 17.2927 26.607 17.508ZM23.719 16.387C24.441 16.387 24.916 16.2413 25.144 15.95C25.3847 15.646 25.505 15.2723 25.505 14.829C25.505 14.525 25.3847 14.3033 25.144 14.164C24.916 14.0247 24.5297 13.955 23.985 13.955H23.396L23.054 16.387H23.719ZM23.054 21.745C23.9027 21.745 24.479 21.593 24.783 21.289C25.0997 20.9723 25.258 20.529 25.258 19.959C25.258 19.2243 24.7197 18.857 23.643 18.857H22.712L22.313 21.745H23.054ZM34.2897 24.88C32.8963 24.88 31.807 24.4937 31.0217 23.721C30.2363 22.9483 29.8437 21.8717 29.8437 20.491C29.8437 19.389 30.0337 18.344 30.4137 17.356C30.8063 16.368 31.4397 15.5573 32.3137 14.924C33.2003 14.2907 34.3403 13.974 35.7337 13.974C37.127 13.974 38.2163 14.3667 39.0017 15.152C39.7997 15.9247 40.1987 16.9823 40.1987 18.325C40.1987 19.427 40.0023 20.472 39.6097 21.46C39.2297 22.448 38.5963 23.265 37.7097 23.911C36.8357 24.557 35.6957 24.88 34.2897 24.88ZM34.5937 22.182C35.3157 22.182 35.8033 21.7513 36.0567 20.89C36.31 20.016 36.4367 19.0787 36.4367 18.078C36.4367 17.584 36.3543 17.2293 36.1897 17.014C36.025 16.786 35.7717 16.672 35.4297 16.672C34.7203 16.672 34.239 17.0963 33.9857 17.945C33.7323 18.781 33.6057 19.693 33.6057 20.681C33.6057 21.213 33.6817 21.5993 33.8337 21.84C33.9983 22.068 34.2517 22.182 34.5937 22.182ZM45.1627 24.88C43.7694 24.88 42.6801 24.4937 41.8947 23.721C41.1094 22.9483 40.7167 21.8717 40.7167 20.491C40.7167 19.389 40.9067 18.344 41.2867 17.356C41.6794 16.368 42.3127 15.5573 43.1867 14.924C44.0734 14.2907 45.2134 13.974 46.6067 13.974C48.0001 13.974 49.0894 14.3667 49.8747 15.152C50.6727 15.9247 51.0717 16.9823 51.0717 18.325C51.0717 19.427 50.8754 20.472 50.4827 21.46C50.1027 22.448 49.4694 23.265 48.5827 23.911C47.7087 24.557 46.5687 24.88 45.1627 24.88ZM45.4667 22.182C46.1887 22.182 46.6764 21.7513 46.9297 20.89C47.1831 20.016 47.3097 19.0787 47.3097 18.078C47.3097 17.584 47.2274 17.2293 47.0627 17.014C46.8981 16.786 46.6447 16.672 46.3027 16.672C45.5934 16.672 45.1121 17.0963 44.8587 17.945C44.6054 18.781 44.4787 19.693 44.4787 20.681C44.4787 21.213 44.5547 21.5993 44.7067 21.84C44.8714 22.068 45.1247 22.182 45.4667 22.182ZM56.5678 13.974C57.3278 13.974 58.0498 14.0943 58.7338 14.335C59.4178 14.5757 60.0068 14.8987 60.5008 15.304L58.9238 17.28C58.5691 17.0647 58.1828 16.8937 57.7648 16.767C57.3594 16.6403 56.9731 16.577 56.6058 16.577C55.9724 16.577 55.6558 16.748 55.6558 17.09C55.6558 17.2167 55.7001 17.318 55.7888 17.394C55.8774 17.47 56.0738 17.5713 56.3778 17.698C56.6818 17.812 57.0744 17.945 57.5558 18.097C59.2278 18.6543 60.0638 19.6867 60.0638 21.194C60.0638 21.8147 59.9181 22.4037 59.6268 22.961C59.3354 23.5057 58.8351 23.9617 58.1258 24.329C57.4164 24.6963 56.4791 24.88 55.3138 24.88C54.4144 24.88 53.5594 24.7153 52.7488 24.386C51.9381 24.0567 51.2984 23.626 50.8298 23.094L52.6158 21.213C53.4138 21.9223 54.3131 22.277 55.3138 22.277C56.0611 22.277 56.4348 22.068 56.4348 21.65C56.4348 21.498 56.3841 21.3777 56.2828 21.289C56.1941 21.2003 56.0294 21.1053 55.7888 21.004C55.5608 20.9027 55.1364 20.7443 54.5158 20.529C53.6671 20.225 53.0338 19.8323 52.6158 19.351C52.2104 18.8697 52.0078 18.2427 52.0078 17.47C52.0078 16.8113 52.1851 16.216 52.5398 15.684C52.9071 15.152 53.4328 14.734 54.1168 14.43C54.8134 14.126 55.6304 13.974 56.5678 13.974ZM65.6962 21.935C65.9749 21.935 66.2979 21.8527 66.6652 21.688L67.5772 24.082C67.1466 24.3353 66.6462 24.5317 66.0762 24.671C65.5062 24.8103 64.9806 24.88 64.4992 24.88C63.4732 24.88 62.6879 24.6077 62.1432 24.063C61.6112 23.5183 61.3452 22.7267 61.3452 21.688C61.3452 21.5107 61.3706 21.194 61.4212 20.738L61.9722 16.9H60.7752L61.1172 14.354H62.4852L63.0932 12.169L66.3612 11.789L66.0002 14.354H68.2802L67.5202 16.9H65.6582L65.1262 20.738C65.1009 20.966 65.0882 21.118 65.0882 21.194C65.0882 21.46 65.1389 21.65 65.2402 21.764C65.3416 21.878 65.4936 21.935 65.6962 21.935ZM74.3372 24.5C73.1339 27.2867 70.8412 28.7307 67.4592 28.832L67.3832 26.267C68.3586 26.1783 69.0996 26.001 69.6062 25.735C70.1256 25.4817 70.5626 25.07 70.9172 24.5H69.6252L68.2002 14.354H72.0382L72.2472 22.182L74.8312 14.354H78.6882L74.3372 24.5Z" fill="white"/>
</svg>
