<svg width="512" height="128" viewBox="0 0 512 128" fill="none" xmlns="http://www.w3.org/2000/svg">
<rect width="512" height="128" rx="15" fill="url(#paint0_linear_2075_52)"/>
<path d="M170.928 61.532C174.069 62.14 176.577 63.28 178.452 64.952C180.327 66.624 181.264 69.208 181.264 72.704C181.264 77.7707 179.212 81.8493 175.108 84.94C171.055 87.98 164.417 89.5 155.196 89.5H136.956L144.328 36.604H160.364C167.508 36.604 172.955 37.5413 176.704 39.416C180.504 41.2907 182.404 44.432 182.404 48.84C182.404 52.3867 181.315 55.1733 179.136 57.2C176.957 59.2267 174.221 60.6707 170.928 61.532ZM159.376 57.048C162.264 57.048 164.164 56.4653 165.076 55.3C166.039 54.084 166.52 52.5893 166.52 50.816C166.52 49.6 166.039 48.7133 165.076 48.156C164.164 47.5987 162.619 47.32 160.44 47.32H158.084L156.716 57.048H159.376ZM156.716 78.48C160.111 78.48 162.416 77.872 163.632 76.656C164.899 75.3893 165.532 73.616 165.532 71.336C165.532 68.3973 163.379 66.928 159.072 66.928H155.348L153.752 78.48H156.716ZM201.659 91.02C196.085 91.02 191.728 89.4747 188.587 86.384C185.445 83.2933 183.875 78.9867 183.875 73.464C183.875 69.056 184.635 64.876 186.155 60.924C187.725 56.972 190.259 53.7293 193.755 51.196C197.301 48.6627 201.861 47.396 207.435 47.396C213.008 47.396 217.365 48.9667 220.507 52.108C223.699 55.1987 225.295 59.4293 225.295 64.8C225.295 69.208 224.509 73.388 222.939 77.34C221.419 81.292 218.885 84.56 215.339 87.144C211.843 89.728 207.283 91.02 201.659 91.02ZM202.875 80.228C205.763 80.228 207.713 78.5053 208.727 75.06C209.74 71.564 210.247 67.8147 210.247 63.812C210.247 61.836 209.917 60.4173 209.259 59.556C208.6 58.644 207.587 58.188 206.219 58.188C203.381 58.188 201.456 59.8853 200.443 63.28C199.429 66.624 198.923 70.272 198.923 74.224C198.923 76.352 199.227 77.8973 199.835 78.86C200.493 79.772 201.507 80.228 202.875 80.228ZM245.151 91.02C239.578 91.02 235.22 89.4747 232.079 86.384C228.938 83.2933 227.367 78.9867 227.367 73.464C227.367 69.056 228.127 64.876 229.647 60.924C231.218 56.972 233.751 53.7293 237.247 51.196C240.794 48.6627 245.354 47.396 250.927 47.396C256.5 47.396 260.858 48.9667 263.999 52.108C267.191 55.1987 268.787 59.4293 268.787 64.8C268.787 69.208 268.002 73.388 266.431 77.34C264.911 81.292 262.378 84.56 258.831 87.144C255.335 89.728 250.775 91.02 245.151 91.02ZM246.367 80.228C249.255 80.228 251.206 78.5053 252.219 75.06C253.232 71.564 253.739 67.8147 253.739 63.812C253.739 61.836 253.41 60.4173 252.751 59.556C252.092 58.644 251.079 58.188 249.711 58.188C246.874 58.188 244.948 59.8853 243.935 63.28C242.922 66.624 242.415 70.272 242.415 74.224C242.415 76.352 242.719 77.8973 243.327 78.86C243.986 79.772 244.999 80.228 246.367 80.228ZM290.771 47.396C293.811 47.396 296.699 47.8773 299.435 48.84C302.171 49.8027 304.527 51.0947 306.503 52.716L300.195 60.62C298.776 59.7587 297.231 59.0747 295.559 58.568C293.938 58.0613 292.392 57.808 290.923 57.808C288.39 57.808 287.123 58.492 287.123 59.86C287.123 60.3667 287.3 60.772 287.655 61.076C288.01 61.38 288.795 61.7853 290.011 62.292C291.227 62.748 292.798 63.28 294.723 63.888C301.411 66.1173 304.755 70.2467 304.755 76.276C304.755 78.7587 304.172 81.1147 303.007 83.344C301.842 85.5227 299.84 87.3467 297.003 88.816C294.166 90.2853 290.416 91.02 285.755 91.02C282.158 91.02 278.738 90.3613 275.495 89.044C272.252 87.7267 269.694 86.004 267.819 83.876L274.963 76.352C278.155 79.1893 281.752 80.608 285.755 80.608C288.744 80.608 290.239 79.772 290.239 78.1C290.239 77.492 290.036 77.0107 289.631 76.656C289.276 76.3013 288.618 75.9213 287.655 75.516C286.743 75.1107 285.046 74.4773 282.563 73.616C279.168 72.4 276.635 70.8293 274.963 68.904C273.342 66.9787 272.531 64.4707 272.531 61.38C272.531 58.7453 273.24 56.364 274.659 54.236C276.128 52.108 278.231 50.436 280.967 49.22C283.754 48.004 287.022 47.396 290.771 47.396ZM327.285 79.24C328.4 79.24 329.692 78.9107 331.161 78.252L334.809 87.828C333.086 88.8413 331.085 89.6267 328.805 90.184C326.525 90.7413 324.422 91.02 322.497 91.02C318.393 91.02 315.252 89.9307 313.073 87.752C310.945 85.5733 309.881 82.4067 309.881 78.252C309.881 77.5427 309.982 76.276 310.185 74.452L312.389 59.1H307.601L308.969 48.916H314.441L316.873 40.176L329.945 38.656L328.501 48.916H337.621L334.581 59.1H327.133L325.005 74.452C324.904 75.364 324.853 75.972 324.853 76.276C324.853 77.34 325.056 78.1 325.461 78.556C325.866 79.012 326.474 79.24 327.285 79.24ZM361.849 89.5C357.036 100.647 347.865 106.423 334.337 106.828L334.033 96.568C337.934 96.2133 340.898 95.504 342.925 94.44C345.002 93.4267 346.75 91.78 348.169 89.5H343.001L337.301 48.916H352.653L353.489 80.228L363.825 48.916H379.253L361.849 89.5Z" fill="white"/>
<defs>
<linearGradient id="paint0_linear_2075_52" x1="256" y1="0" x2="256" y2="128" gradientUnits="userSpaceOnUse">
<stop stop-color="#F49208"/>
<stop offset="1" stop-color="#8E5505"/>
</linearGradient>
</defs>
</svg>
