<svg width="122" height="28" viewBox="0 0 122 28" fill="none" xmlns="http://www.w3.org/2000/svg">
<g clip-path="url(#clip0_2076_77)">
<rect width="121.111" height="28" rx="1.94444" fill="#2D2F30"/>
<g clip-path="url(#clip1_2076_77)">
<path d="M8.76476 19V7.68273H11.1497V17.0252H16.0033V19H8.76476ZM17.5603 19V10.5082H19.9149V19H17.5603ZM18.7376 9.42209C18.3882 9.42209 18.0869 9.30563 17.8338 9.0727C17.5856 8.83977 17.4616 8.55874 17.4616 8.2296C17.4616 7.90046 17.5856 7.62196 17.8338 7.3941C18.0869 7.16117 18.3882 7.04471 18.7376 7.04471C19.087 7.04471 19.3858 7.16117 19.6339 7.3941C19.8871 7.62196 20.0137 7.90046 20.0137 8.2296C20.0137 8.55874 19.8871 8.83977 19.6339 9.0727C19.3858 9.30563 19.087 9.42209 18.7376 9.42209ZM25.6267 19.1671C24.7558 19.1671 24.0089 18.9823 23.3861 18.6126C22.7632 18.243 22.2847 17.729 21.9505 17.0707C21.6214 16.4125 21.4568 15.6529 21.4568 14.7921C21.4568 13.9212 21.6239 13.1565 21.9581 12.4983C22.2974 11.84 22.7784 11.326 23.4013 10.9564C24.0241 10.5867 24.7634 10.4019 25.6191 10.4019C26.3584 10.4019 27.0066 10.5361 27.5636 10.8045C28.1206 11.0728 28.5611 11.4501 28.8852 11.9362C29.2093 12.4223 29.3865 12.9945 29.4169 13.6528H27.199C27.1332 13.2325 26.9686 12.8932 26.7053 12.635C26.442 12.3717 26.0926 12.24 25.6571 12.24C25.1102 12.24 24.6722 12.4603 24.3431 12.9008C24.014 13.3363 23.8494 13.9566 23.8494 14.7617C23.8494 15.5719 24.0114 16.2023 24.3355 16.653C24.6646 17.1037 25.1052 17.329 25.6571 17.329C26.0622 17.329 26.404 17.2024 26.6825 16.9492C26.961 16.696 27.1332 16.3416 27.199 15.8859H29.4169C29.3814 16.534 29.2067 17.1062 28.8928 17.6024C28.5788 18.0936 28.1434 18.4784 27.5864 18.7569C27.0344 19.0304 26.3812 19.1671 25.6267 19.1671ZM34.8097 19.1671C33.9387 19.1671 33.1893 18.9899 32.5614 18.6354C31.9335 18.281 31.4499 17.7771 31.1107 17.1239C30.7714 16.4656 30.6018 15.6884 30.6018 14.7921C30.6018 13.9212 30.7689 13.1565 31.1031 12.4983C31.4423 11.84 31.9183 11.326 32.531 10.9564C33.1437 10.5867 33.8653 10.4019 34.6957 10.4019C35.4452 10.4019 36.1212 10.5614 36.7237 10.8804C37.3314 11.1994 37.8124 11.678 38.1669 12.316C38.5264 12.954 38.7062 13.7541 38.7062 14.7161V15.3542H32.9184C32.9437 15.9973 33.1311 16.5011 33.4805 16.8657C33.8299 17.2303 34.2856 17.4125 34.8477 17.4125C35.2376 17.4125 35.5718 17.329 35.8503 17.1619C36.1338 16.9948 36.3364 16.7517 36.4579 16.4327L38.6302 16.577C38.4631 17.3568 38.0454 17.9847 37.377 18.4607C36.7136 18.9316 35.8579 19.1671 34.8097 19.1671ZM32.9336 13.9034H36.4503C36.3946 13.3667 36.2224 12.9413 35.9338 12.6274C35.6452 12.3134 35.2401 12.1565 34.7185 12.1565C34.1919 12.1565 33.7742 12.321 33.4653 12.6502C33.1615 12.9742 32.9842 13.392 32.9336 13.9034ZM42.6102 14.0933V19H40.2556V10.5082H42.5723V12.0197H42.6558C42.8482 11.5235 43.1546 11.1311 43.5749 10.8424C43.9952 10.5488 44.5192 10.4019 45.1471 10.4019C46.0333 10.4019 46.7422 10.688 47.2739 11.2602C47.8106 11.8273 48.079 12.6071 48.079 13.5996V19H45.7244V14.0174C45.7244 13.4958 45.5902 13.0882 45.3218 12.7945C45.0585 12.5008 44.6914 12.3539 44.2205 12.3539C43.7445 12.3539 43.3571 12.5084 43.0584 12.8173C42.7596 13.1211 42.6102 13.5464 42.6102 14.0933ZM57.0113 12.9312L54.8694 13.0603C54.8086 12.792 54.6567 12.5616 54.4136 12.3691C54.1756 12.1717 53.8516 12.0729 53.4414 12.0729C53.0768 12.0729 52.7705 12.1489 52.5224 12.3008C52.2742 12.4527 52.1502 12.6552 52.1502 12.9084C52.1502 13.111 52.2312 13.2831 52.3932 13.4249C52.5553 13.5667 52.8312 13.6806 53.2211 13.7667L54.763 14.0705C56.3935 14.3946 57.2088 15.1592 57.2088 16.3644C57.2088 16.9264 57.0467 17.4176 56.7227 17.8379C56.3986 18.2582 55.953 18.5848 55.3858 18.8177C54.8187 19.0506 54.168 19.1671 53.4338 19.1671C52.3097 19.1671 51.4159 18.9342 50.7526 18.4683C50.0893 17.9974 49.6994 17.3568 49.5829 16.5467L51.8919 16.4251C52.0489 17.1239 52.5654 17.4733 53.4414 17.4733C53.8516 17.4733 54.1832 17.3923 54.4364 17.2303C54.6896 17.0682 54.8162 16.8631 54.8162 16.615C54.8162 16.1947 54.4541 15.9112 53.73 15.7643L52.2641 15.4605C50.6285 15.1314 49.8108 14.3262 49.8108 13.0451C49.8108 12.2248 50.1374 11.5792 50.7906 11.1083C51.4489 10.6374 52.3198 10.4019 53.4034 10.4019C54.4769 10.4019 55.3226 10.6298 55.9403 11.0855C56.5581 11.5362 56.9151 12.1514 57.0113 12.9312ZM62.5636 19.1671C61.6926 19.1671 60.9432 18.9899 60.3153 18.6354C59.6874 18.281 59.2038 17.7771 58.8646 17.1239C58.5253 16.4656 58.3557 15.6884 58.3557 14.7921C58.3557 13.9212 58.5228 13.1565 58.857 12.4983C59.1963 11.84 59.6722 11.326 60.2849 10.9564C60.8976 10.5867 61.6192 10.4019 62.4497 10.4019C63.1991 10.4019 63.8751 10.5614 64.4776 10.8804C65.0853 11.1994 65.5663 11.678 65.9208 12.316C66.2803 12.954 66.4601 13.7541 66.4601 14.7161V15.3542H60.6723C60.6976 15.9973 60.885 16.5011 61.2344 16.8657C61.5838 17.2303 62.0395 17.4125 62.6016 17.4125C62.9915 17.4125 63.3257 17.329 63.6042 17.1619C63.8877 16.9948 64.0903 16.7517 64.2118 16.4327L66.3841 16.577C66.217 17.3568 65.7993 17.9847 65.1309 18.4607C64.4675 18.9316 63.6118 19.1671 62.5636 19.1671ZM60.6875 13.9034H64.2042C64.1485 13.3667 63.9763 12.9413 63.6877 12.6274C63.3991 12.3134 62.994 12.1565 62.4724 12.1565C61.9458 12.1565 61.5281 12.321 61.2192 12.6502C60.9154 12.9742 60.7381 13.392 60.6875 13.9034Z" fill="white"/>
</g>
<g clip-path="url(#clip2_2076_77)">
<rect width="45.5556" height="28" transform="translate(75.5557)" fill="#155B8C"/>
<path d="M84.3214 7.68273H87.2684L90.3826 15.2858H90.5117L93.6335 7.68273H96.6033V19H94.2563V11.6324H94.1727L91.2333 18.9468H89.6458L86.7368 11.6172H86.638V19H84.3214V7.68273ZM100.956 7.68273V19H98.5705V7.68273H100.956ZM102.497 9.65755V7.68273H111.787V9.65755H108.338V19H105.953V9.65755H102.497Z" fill="white"/>
</g>
</g>
<defs>
<clipPath id="clip0_2076_77">
<rect width="121.111" height="28" rx="1.94444" fill="white"/>
</clipPath>
<clipPath id="clip1_2076_77">
<rect width="75.5556" height="28" rx="1.94444" fill="white"/>
</clipPath>
<clipPath id="clip2_2076_77">
<rect width="45.5556" height="28" fill="white" transform="translate(75.5557)"/>
</clipPath>
</defs>
</svg>
