<svg width="79" height="18" viewBox="0 0 79 18" fill="none" xmlns="http://www.w3.org/2000/svg">
<g clip-path="url(#clip0_2076_77)">
<rect x="0.25" width="78" height="18" rx="1.25" fill="#2D2F30"/>
<path d="M5.88477 12V4.72461H7.41797V10.7305H10.5381V12H5.88477ZM11.5391 12V6.54102H13.0527V12H11.5391ZM12.2959 5.84277C12.0713 5.84277 11.8776 5.7679 11.7148 5.61816C11.5553 5.46842 11.4756 5.28776 11.4756 5.07617C11.4756 4.86458 11.5553 4.68555 11.7148 4.53906C11.8776 4.38932 12.0713 4.31445 12.2959 4.31445C12.5205 4.31445 12.7126 4.38932 12.8721 4.53906C13.0348 4.68555 13.1162 4.86458 13.1162 5.07617C13.1162 5.28776 13.0348 5.46842 12.8721 5.61816C12.7126 5.7679 12.5205 5.84277 12.2959 5.84277ZM16.7246 12.1074C16.1647 12.1074 15.6846 11.9886 15.2842 11.751C14.8838 11.5133 14.5762 11.1829 14.3613 10.7598C14.1497 10.3366 14.0439 9.84831 14.0439 9.29492C14.0439 8.73503 14.1514 8.24349 14.3662 7.82031C14.5843 7.39714 14.8936 7.06673 15.2939 6.8291C15.6943 6.59147 16.1696 6.47266 16.7197 6.47266C17.195 6.47266 17.6117 6.55892 17.9697 6.73145C18.3278 6.90397 18.611 7.14648 18.8193 7.45898C19.0277 7.77148 19.1416 8.13932 19.1611 8.5625H17.7354C17.693 8.29232 17.5872 8.07422 17.418 7.9082C17.2487 7.73893 17.0241 7.6543 16.7441 7.6543C16.3926 7.6543 16.111 7.7959 15.8994 8.0791C15.6878 8.35905 15.582 8.75781 15.582 9.27539C15.582 9.79622 15.6862 10.2015 15.8945 10.4912C16.1061 10.7809 16.3893 10.9258 16.7441 10.9258C17.0046 10.9258 17.2243 10.8444 17.4033 10.6816C17.5824 10.5189 17.693 10.291 17.7354 9.99805H19.1611C19.1383 10.4147 19.026 10.7826 18.8242 11.1016C18.6224 11.4173 18.3424 11.6647 17.9844 11.8438C17.6296 12.0195 17.2096 12.1074 16.7246 12.1074ZM22.6279 12.1074C22.068 12.1074 21.5863 11.9935 21.1826 11.7656C20.779 11.5378 20.4681 11.2139 20.25 10.7939C20.0319 10.3708 19.9229 9.87109 19.9229 9.29492C19.9229 8.73503 20.0303 8.24349 20.2451 7.82031C20.4632 7.39714 20.7692 7.06673 21.1631 6.8291C21.557 6.59147 22.0208 6.47266 22.5547 6.47266C23.0365 6.47266 23.471 6.5752 23.8584 6.78027C24.249 6.98535 24.5583 7.29297 24.7861 7.70312C25.0173 8.11328 25.1328 8.6276 25.1328 9.24609V9.65625H21.4121C21.4284 10.0697 21.5488 10.3936 21.7734 10.6279C21.998 10.8623 22.291 10.9795 22.6523 10.9795C22.903 10.9795 23.1178 10.9258 23.2969 10.8184C23.4792 10.7109 23.6094 10.5547 23.6875 10.3496L25.084 10.4424C24.9766 10.9437 24.708 11.3473 24.2783 11.6533C23.8519 11.9561 23.3018 12.1074 22.6279 12.1074ZM21.4219 8.72363H23.6826C23.6468 8.37858 23.5361 8.10514 23.3506 7.90332C23.165 7.7015 22.9046 7.60059 22.5693 7.60059C22.2308 7.60059 21.9622 7.70638 21.7637 7.91797C21.5684 8.1263 21.4544 8.39486 21.4219 8.72363ZM27.6426 8.8457V12H26.1289V6.54102H27.6182V7.5127H27.6719C27.7956 7.19368 27.9925 6.94141 28.2627 6.75586C28.5329 6.56706 28.8698 6.47266 29.2734 6.47266C29.8431 6.47266 30.2988 6.65658 30.6406 7.02441C30.9857 7.389 31.1582 7.8903 31.1582 8.52832V12H29.6445V8.79688C29.6445 8.46159 29.5583 8.19954 29.3857 8.01074C29.2165 7.82194 28.9805 7.72754 28.6777 7.72754C28.3717 7.72754 28.1227 7.82682 27.9307 8.02539C27.7386 8.2207 27.6426 8.49414 27.6426 8.8457ZM36.9004 8.09863L35.5234 8.18164C35.4844 8.00911 35.3867 7.861 35.2305 7.7373C35.0775 7.61035 34.8691 7.54688 34.6055 7.54688C34.3711 7.54688 34.1742 7.5957 34.0146 7.69336C33.8551 7.79102 33.7754 7.92122 33.7754 8.08398C33.7754 8.21419 33.8275 8.32487 33.9316 8.41602C34.0358 8.50716 34.2132 8.5804 34.4639 8.63574L35.4551 8.83105C36.5033 9.03939 37.0273 9.53092 37.0273 10.3057C37.0273 10.667 36.9232 10.9827 36.7148 11.2529C36.5065 11.5231 36.2201 11.7331 35.8555 11.8828C35.4909 12.0326 35.0726 12.1074 34.6006 12.1074C33.8779 12.1074 33.3034 11.9577 32.877 11.6582C32.4505 11.3555 32.1999 10.9437 32.125 10.4229L33.6094 10.3447C33.7103 10.7939 34.0423 11.0186 34.6055 11.0186C34.8691 11.0186 35.0824 10.9665 35.2451 10.8623C35.4079 10.7581 35.4893 10.6263 35.4893 10.4668C35.4893 10.1966 35.2565 10.0143 34.791 9.91992L33.8486 9.72461C32.7972 9.51302 32.2715 8.99544 32.2715 8.17188C32.2715 7.64453 32.4814 7.22949 32.9014 6.92676C33.3245 6.62402 33.8844 6.47266 34.5811 6.47266C35.2712 6.47266 35.8148 6.61914 36.2119 6.91211C36.609 7.20182 36.8385 7.59733 36.9004 8.09863ZM40.4697 12.1074C39.9098 12.1074 39.4281 11.9935 39.0244 11.7656C38.6208 11.5378 38.3099 11.2139 38.0918 10.7939C37.8737 10.3708 37.7646 9.87109 37.7646 9.29492C37.7646 8.73503 37.8721 8.24349 38.0869 7.82031C38.305 7.39714 38.611 7.06673 39.0049 6.8291C39.3988 6.59147 39.8626 6.47266 40.3965 6.47266C40.8783 6.47266 41.3128 6.5752 41.7002 6.78027C42.0908 6.98535 42.4001 7.29297 42.6279 7.70312C42.859 8.11328 42.9746 8.6276 42.9746 9.24609V9.65625H39.2539C39.2702 10.0697 39.3906 10.3936 39.6152 10.6279C39.8398 10.8623 40.1328 10.9795 40.4941 10.9795C40.7448 10.9795 40.9596 10.9258 41.1387 10.8184C41.321 10.7109 41.4512 10.5547 41.5293 10.3496L42.9258 10.4424C42.8184 10.9437 42.5498 11.3473 42.1201 11.6533C41.6937 11.9561 41.1436 12.1074 40.4697 12.1074ZM39.2637 8.72363H41.5244C41.4886 8.37858 41.3779 8.10514 41.1924 7.90332C41.0068 7.7015 40.7464 7.60059 40.4111 7.60059C40.0726 7.60059 39.804 7.70638 39.6055 7.91797C39.4102 8.1263 39.2962 8.39486 39.2637 8.72363Z" fill="white"/>
<rect width="29" height="18" transform="translate(49.25)" fill="#155B8C"/>
<path d="M54.8848 4.72461H56.7793L58.7812 9.6123H58.8643L60.8711 4.72461H62.7803V12H61.2715V7.26367H61.2178L59.3281 11.9658H58.3076L56.4375 7.25391H56.374V12H54.8848V4.72461ZM65.5781 4.72461V12H64.0449V4.72461H65.5781ZM66.5693 5.99414V4.72461H72.541V5.99414H70.3242V12H68.791V5.99414H66.5693Z" fill="white"/>
</g>
<defs>
<clipPath id="clip0_2076_77">
<rect x="0.25" width="78" height="18" rx="1.25" fill="white"/>
</clipPath>
</defs>
</svg>
