<svg width="155" height="36" viewBox="0 0 155 36" fill="none" xmlns="http://www.w3.org/2000/svg">
<g clip-path="url(#clip0_2076_77)">
<rect width="155" height="36" rx="2.5" fill="#2D2F30"/>
<path d="M11.2695 24V9.44922H14.3359V21.4609H20.5762V24H11.2695ZM22.5781 24V13.082H25.6055V24H22.5781ZM24.0918 11.6855C23.6426 11.6855 23.2552 11.5358 22.9297 11.2363C22.6107 10.9368 22.4512 10.5755 22.4512 10.1523C22.4512 9.72917 22.6107 9.37109 22.9297 9.07812C23.2552 8.77865 23.6426 8.62891 24.0918 8.62891C24.541 8.62891 24.9251 8.77865 25.2441 9.07812C25.5697 9.37109 25.7324 9.72917 25.7324 10.1523C25.7324 10.5755 25.5697 10.9368 25.2441 11.2363C24.9251 11.5358 24.541 11.6855 24.0918 11.6855ZM32.9492 24.2148C31.8294 24.2148 30.8691 23.9772 30.0684 23.502C29.2676 23.0267 28.6523 22.3659 28.2227 21.5195C27.7995 20.6732 27.5879 19.6966 27.5879 18.5898C27.5879 17.4701 27.8027 16.487 28.2324 15.6406C28.6686 14.7943 29.2871 14.1335 30.0879 13.6582C30.8887 13.1829 31.8392 12.9453 32.9395 12.9453C33.89 12.9453 34.7233 13.1178 35.4395 13.4629C36.1556 13.8079 36.722 14.293 37.1387 14.918C37.5553 15.543 37.7832 16.2786 37.8223 17.125H34.9707C34.8861 16.5846 34.6745 16.1484 34.3359 15.8164C33.9974 15.4779 33.5482 15.3086 32.9883 15.3086C32.2852 15.3086 31.722 15.5918 31.2988 16.1582C30.8757 16.7181 30.6641 17.5156 30.6641 18.5508C30.6641 19.5924 30.8724 20.403 31.2891 20.9824C31.7122 21.5618 32.2786 21.8516 32.9883 21.8516C33.5091 21.8516 33.9486 21.6888 34.3066 21.3633C34.6647 21.0378 34.8861 20.582 34.9707 19.9961H37.8223C37.7767 20.8294 37.5521 21.5651 37.1484 22.2031C36.7448 22.8346 36.1849 23.3294 35.4688 23.6875C34.7591 24.0391 33.9193 24.2148 32.9492 24.2148ZM44.7559 24.2148C43.6361 24.2148 42.6725 23.987 41.8652 23.5312C41.0579 23.0755 40.4362 22.4277 40 21.5879C39.5638 20.7415 39.3457 19.7422 39.3457 18.5898C39.3457 17.4701 39.5605 16.487 39.9902 15.6406C40.4264 14.7943 41.0384 14.1335 41.8262 13.6582C42.6139 13.1829 43.5417 12.9453 44.6094 12.9453C45.5729 12.9453 46.4421 13.1504 47.2168 13.5605C47.998 13.9707 48.6165 14.5859 49.0723 15.4062C49.5345 16.2266 49.7656 17.2552 49.7656 18.4922V19.3125H42.3242C42.3568 20.1393 42.5977 20.7871 43.0469 21.2559C43.4961 21.7246 44.082 21.959 44.8047 21.959C45.306 21.959 45.7357 21.8516 46.0938 21.6367C46.4583 21.4219 46.7188 21.1094 46.875 20.6992L49.668 20.8848C49.4531 21.8874 48.916 22.6947 48.0566 23.3066C47.2038 23.9121 46.1035 24.2148 44.7559 24.2148ZM42.3438 17.4473H46.8652C46.7936 16.7572 46.5723 16.2103 46.2012 15.8066C45.8301 15.403 45.3092 15.2012 44.6387 15.2012C43.9616 15.2012 43.4245 15.4128 43.0273 15.8359C42.6367 16.2526 42.4089 16.7897 42.3438 17.4473ZM54.7852 17.6914V24H51.7578V13.082H54.7363V15.0254H54.8438C55.0911 14.3874 55.485 13.8828 56.0254 13.5117C56.5658 13.1341 57.2396 12.9453 58.0469 12.9453C59.1862 12.9453 60.0977 13.3132 60.7812 14.0488C61.4714 14.778 61.8164 15.7806 61.8164 17.0566V24H58.7891V17.5938C58.7891 16.9232 58.6165 16.3991 58.2715 16.0215C57.9329 15.6439 57.4609 15.4551 56.8555 15.4551C56.2435 15.4551 55.7454 15.6536 55.3613 16.0508C54.9772 16.4414 54.7852 16.9883 54.7852 17.6914ZM73.3008 16.1973L70.5469 16.3633C70.4688 16.0182 70.2734 15.722 69.9609 15.4746C69.6549 15.2207 69.2383 15.0938 68.7109 15.0938C68.2422 15.0938 67.8483 15.1914 67.5293 15.3867C67.2103 15.582 67.0508 15.8424 67.0508 16.168C67.0508 16.4284 67.1549 16.6497 67.3633 16.832C67.5716 17.0143 67.9264 17.1608 68.4277 17.2715L70.4102 17.6621C72.5065 18.0788 73.5547 19.0618 73.5547 20.6113C73.5547 21.334 73.3464 21.9655 72.9297 22.5059C72.513 23.0462 71.9401 23.4661 71.2109 23.7656C70.4818 24.0651 69.6452 24.2148 68.7012 24.2148C67.2559 24.2148 66.1068 23.9154 65.2539 23.3164C64.401 22.7109 63.8997 21.8874 63.75 20.8457L66.7188 20.6895C66.9206 21.5879 67.5846 22.0371 68.7109 22.0371C69.2383 22.0371 69.6647 21.9329 69.9902 21.7246C70.3158 21.5163 70.4785 21.2526 70.4785 20.9336C70.4785 20.3932 70.013 20.0286 69.082 19.8398L67.1973 19.4492C65.0944 19.026 64.043 17.9909 64.043 16.3438C64.043 15.2891 64.4629 14.459 65.3027 13.8535C66.1491 13.248 67.2689 12.9453 68.6621 12.9453C70.0423 12.9453 71.1296 13.2383 71.9238 13.8242C72.7181 14.4036 73.1771 15.1947 73.3008 16.1973ZM80.4395 24.2148C79.3197 24.2148 78.3561 23.987 77.5488 23.5312C76.7415 23.0755 76.1198 22.4277 75.6836 21.5879C75.2474 20.7415 75.0293 19.7422 75.0293 18.5898C75.0293 17.4701 75.2441 16.487 75.6738 15.6406C76.11 14.7943 76.722 14.1335 77.5098 13.6582C78.2975 13.1829 79.2253 12.9453 80.293 12.9453C81.2565 12.9453 82.1257 13.1504 82.9004 13.5605C83.6816 13.9707 84.3001 14.5859 84.7559 15.4062C85.2181 16.2266 85.4492 17.2552 85.4492 18.4922V19.3125H78.0078C78.0404 20.1393 78.2812 20.7871 78.7305 21.2559C79.1797 21.7246 79.7656 21.959 80.4883 21.959C80.9896 21.959 81.4193 21.8516 81.7773 21.6367C82.1419 21.4219 82.4023 21.1094 82.5586 20.6992L85.3516 20.8848C85.1367 21.8874 84.5996 22.6947 83.7402 23.3066C82.8874 23.9121 81.7871 24.2148 80.4395 24.2148ZM78.0273 17.4473H82.5488C82.4772 16.7572 82.2559 16.2103 81.8848 15.8066C81.5137 15.403 80.9928 15.2012 80.3223 15.2012C79.6452 15.2012 79.1081 15.4128 78.7109 15.8359C78.3203 16.2526 78.0924 16.7897 78.0273 17.4473Z" fill="white"/>
<rect width="58" height="36" transform="translate(97)" fill="#155B8C"/>
<path d="M108.27 9.44922H112.059L116.062 19.2246H116.229L120.242 9.44922H124.061V24H121.043V14.5273H120.936L117.156 23.9316H115.115L111.375 14.5078H111.248V24H108.27V9.44922ZM129.656 9.44922V24H126.59V9.44922H129.656ZM131.639 11.9883V9.44922H143.582V11.9883H139.148V24H136.082V11.9883H131.639Z" fill="white"/>
</g>
<defs>
<clipPath id="clip0_2076_77">
<rect width="155" height="36" rx="2.5" fill="white"/>
</clipPath>
</defs>
</svg>
