<svg width="97" height="36" viewBox="0 0 97 36" fill="none" xmlns="http://www.w3.org/2000/svg">
<rect x="0.5" width="96" height="36" rx="2.5" fill="#8C2315"/>
<path d="M36.26 10.96C36.3933 10.72 36.5867 10.56 36.84 10.48C37.0933 10.4 37.4067 10.36 37.78 10.36C38.1667 10.36 38.4733 10.3933 38.7 10.46C38.94 10.5267 39.1133 10.6067 39.22 10.7C39.34 10.7933 39.4267 10.9333 39.48 11.12C39.56 11.3333 39.6 11.6733 39.6 12.14V23.24C39.6 23.56 39.5867 23.7933 39.56 23.94C39.5467 24.0867 39.4867 24.26 39.38 24.46C39.1933 24.82 38.6733 25 37.82 25C37.3 25 36.94 24.96 36.74 24.88C36.54 24.8 36.3733 24.6733 36.24 24.5C33.24 20.5 31.2667 17.8867 30.32 16.66V23.24C30.32 23.56 30.3067 23.7933 30.28 23.94C30.2667 24.0867 30.2067 24.26 30.1 24.46C29.9133 24.82 29.3933 25 28.54 25C27.7133 25 27.2067 24.82 27.02 24.46C26.9133 24.26 26.8467 24.08 26.82 23.92C26.8067 23.76 26.8 23.5267 26.8 23.22V12.06C26.8 11.5533 26.86 11.1867 26.98 10.96C27.1133 10.72 27.3067 10.56 27.56 10.48C27.8133 10.4 28.14 10.36 28.54 10.36C28.94 10.36 29.2533 10.4 29.48 10.48C29.72 10.5467 29.8867 10.6267 29.98 10.72C30.0333 10.76 30.1867 10.9333 30.44 11.24C33.2533 15.0667 35.1333 17.5933 36.08 18.82V12.06C36.08 11.5533 36.14 11.1867 36.26 10.96ZM52.0145 13.3C52.3612 14.0067 52.5345 14.7933 52.5345 15.66C52.5345 16.5267 52.3612 17.3133 52.0145 18.02C51.6679 18.7133 51.2212 19.2667 50.6745 19.68C49.5679 20.5333 48.4212 20.96 47.2345 20.96H44.7345V23.22C44.7345 23.5267 44.7212 23.76 44.6945 23.92C44.6812 24.0667 44.6212 24.24 44.5145 24.44C44.3279 24.8 43.8079 24.98 42.9545 24.98C42.0212 24.98 41.4745 24.7333 41.3145 24.24C41.2345 24.0133 41.1945 23.6667 41.1945 23.2V12.1C41.1945 11.7933 41.2012 11.5667 41.2145 11.42C41.2412 11.26 41.3079 11.08 41.4145 10.88C41.6012 10.52 42.1212 10.34 42.9745 10.34H47.2545C48.4279 10.34 49.5679 10.7667 50.6745 11.62C51.2212 12.0333 51.6679 12.5933 52.0145 13.3ZM47.2545 17.42C47.6545 17.42 48.0479 17.2733 48.4345 16.98C48.8212 16.6867 49.0145 16.2467 49.0145 15.66C49.0145 15.0733 48.8212 14.6333 48.4345 14.34C48.0479 14.0333 47.6479 13.88 47.2345 13.88H44.7345V17.42H47.2545ZM69.4113 10.9C69.5179 11.1 69.5779 11.28 69.5913 11.44C69.6179 11.6 69.6313 11.8333 69.6313 12.14V23.24C69.6313 24.16 69.3779 24.7 68.8713 24.86C68.6179 24.94 68.2979 24.98 67.9113 24.98C67.5246 24.98 67.2179 24.9467 66.9913 24.88C66.7646 24.8133 66.5913 24.7333 66.4713 24.64C66.3513 24.5467 66.2579 24.4133 66.1913 24.24C66.1246 24.0133 66.0913 23.6667 66.0913 23.2V16.5C65.7579 16.9133 65.2713 17.5733 64.6313 18.48C63.9913 19.3733 63.5846 19.9333 63.4113 20.16C63.2379 20.3867 63.1179 20.5467 63.0513 20.64C62.9846 20.72 62.8179 20.84 62.5513 21C62.2979 21.1467 62.0179 21.22 61.7113 21.22C61.4179 21.22 61.1446 21.1533 60.8913 21.02C60.6513 20.8733 60.4779 20.7333 60.3713 20.6L60.2113 20.38C59.9446 20.0467 59.4179 19.34 58.6313 18.26C57.8446 17.1667 57.4179 16.58 57.3513 16.5V23.24C57.3513 23.5467 57.3379 23.78 57.3113 23.94C57.2979 24.0867 57.2379 24.2533 57.1313 24.44C56.9313 24.8 56.4113 24.98 55.5713 24.98C54.7579 24.98 54.2513 24.8 54.0513 24.44C53.9446 24.2533 53.8779 24.08 53.8513 23.92C53.8379 23.76 53.8313 23.52 53.8313 23.2V12.1C53.8313 11.7933 53.8379 11.5667 53.8513 11.42C53.8779 11.26 53.9446 11.08 54.0513 10.88C54.2513 10.5333 54.7713 10.36 55.6113 10.36C55.9713 10.36 56.2779 10.4067 56.5313 10.5C56.7979 10.58 56.9713 10.6667 57.0513 10.76L57.1713 10.88L61.7113 16.84C63.9779 13.84 65.4913 11.86 66.2513 10.9C66.4779 10.54 67.0113 10.36 67.8513 10.36C68.7046 10.36 69.2246 10.54 69.4113 10.9Z" fill="white"/>
</svg>
