<svg width="48" height="18" viewBox="0 0 48 18" fill="none" xmlns="http://www.w3.org/2000/svg">
<rect width="48" height="18" rx="1.25" fill="#8C2315"/>
<path d="M17.63 5.98C17.6967 5.86 17.7933 5.78 17.92 5.74C18.0467 5.7 18.2033 5.68 18.39 5.68C18.5833 5.68 18.7367 5.69667 18.85 5.73C18.97 5.76333 19.0567 5.80333 19.11 5.85C19.17 5.89667 19.2133 5.96667 19.24 6.06C19.28 6.16667 19.3 6.33667 19.3 6.57V12.12C19.3 12.28 19.2933 12.3967 19.28 12.47C19.2733 12.5433 19.2433 12.63 19.19 12.73C19.0967 12.91 18.8367 13 18.41 13C18.15 13 17.97 12.98 17.87 12.94C17.77 12.9 17.6867 12.8367 17.62 12.75C16.12 10.75 15.1333 9.44333 14.66 8.83V12.12C14.66 12.28 14.6533 12.3967 14.64 12.47C14.6333 12.5433 14.6033 12.63 14.55 12.73C14.4567 12.91 14.1967 13 13.77 13C13.3567 13 13.1033 12.91 13.01 12.73C12.9567 12.63 12.9233 12.54 12.91 12.46C12.9033 12.38 12.9 12.2633 12.9 12.11V6.53C12.9 6.27667 12.93 6.09333 12.99 5.98C13.0567 5.86 13.1533 5.78 13.28 5.74C13.4067 5.7 13.57 5.68 13.77 5.68C13.97 5.68 14.1267 5.7 14.24 5.74C14.36 5.77333 14.4433 5.81333 14.49 5.86C14.5167 5.88 14.5933 5.96667 14.72 6.12C16.1267 8.03333 17.0667 9.29667 17.54 9.91V6.53C17.54 6.27667 17.57 6.09333 17.63 5.98ZM25.5073 7.15C25.6806 7.50333 25.7673 7.89667 25.7673 8.33C25.7673 8.76333 25.6806 9.15667 25.5073 9.51C25.3339 9.85667 25.1106 10.1333 24.8373 10.34C24.2839 10.7667 23.7106 10.98 23.1173 10.98H21.8673V12.11C21.8673 12.2633 21.8606 12.38 21.8473 12.46C21.8406 12.5333 21.8106 12.62 21.7573 12.72C21.6639 12.9 21.4039 12.99 20.9773 12.99C20.5106 12.99 20.2373 12.8667 20.1573 12.62C20.1173 12.5067 20.0973 12.3333 20.0973 12.1V6.55C20.0973 6.39667 20.1006 6.28333 20.1073 6.21C20.1206 6.13 20.1539 6.04 20.2073 5.94C20.3006 5.76 20.5606 5.67 20.9873 5.67H23.1273C23.7139 5.67 24.2839 5.88333 24.8373 6.31C25.1106 6.51667 25.3339 6.79667 25.5073 7.15ZM23.1273 9.21C23.3273 9.21 23.5239 9.13667 23.7173 8.99C23.9106 8.84333 24.0073 8.62333 24.0073 8.33C24.0073 8.03667 23.9106 7.81667 23.7173 7.67C23.5239 7.51667 23.3239 7.44 23.1173 7.44H21.8673V9.21H23.1273ZM34.2056 5.95C34.259 6.05 34.289 6.14 34.2956 6.22C34.309 6.3 34.3156 6.41667 34.3156 6.57V12.12C34.3156 12.58 34.189 12.85 33.9356 12.93C33.809 12.97 33.649 12.99 33.4556 12.99C33.2623 12.99 33.109 12.9733 32.9956 12.94C32.8823 12.9067 32.7956 12.8667 32.7356 12.82C32.6756 12.7733 32.629 12.7067 32.5956 12.62C32.5623 12.5067 32.5456 12.3333 32.5456 12.1V8.75C32.379 8.95667 32.1356 9.28667 31.8156 9.74C31.4956 10.1867 31.2923 10.4667 31.2056 10.58C31.119 10.6933 31.059 10.7733 31.0256 10.82C30.9923 10.86 30.909 10.92 30.7756 11C30.649 11.0733 30.509 11.11 30.3556 11.11C30.209 11.11 30.0723 11.0767 29.9456 11.01C29.8256 10.9367 29.739 10.8667 29.6856 10.8L29.6056 10.69C29.4723 10.5233 29.209 10.17 28.8156 9.63C28.4223 9.08333 28.209 8.79 28.1756 8.75V12.12C28.1756 12.2733 28.169 12.39 28.1556 12.47C28.149 12.5433 28.119 12.6267 28.0656 12.72C27.9656 12.9 27.7056 12.99 27.2856 12.99C26.879 12.99 26.6256 12.9 26.5256 12.72C26.4723 12.6267 26.439 12.54 26.4256 12.46C26.419 12.38 26.4156 12.26 26.4156 12.1V6.55C26.4156 6.39667 26.419 6.28333 26.4256 6.21C26.439 6.13 26.4723 6.04 26.5256 5.94C26.6256 5.76667 26.8856 5.68 27.3056 5.68C27.4856 5.68 27.639 5.70333 27.7656 5.75C27.899 5.79 27.9856 5.83333 28.0256 5.88L28.0856 5.94L30.3556 8.92C31.489 7.42 32.2456 6.43 32.6256 5.95C32.739 5.77 33.0056 5.68 33.4256 5.68C33.8523 5.68 34.1123 5.77 34.2056 5.95Z" fill="white"/>
</svg>
