<svg width="76" height="28" viewBox="0 0 76 28" fill="none" xmlns="http://www.w3.org/2000/svg">
<rect x="0.722656" width="74.6667" height="28" rx="1.94444" fill="#8C2315"/>
<path d="M28.5357 8.58C28.6394 8.39333 28.7897 8.26889 28.9868 8.20667C29.1838 8.14444 29.4275 8.11333 29.7179 8.11333C30.0186 8.11333 30.2571 8.13926 30.4334 8.19111C30.6201 8.24296 30.7549 8.30518 30.8379 8.37778C30.9312 8.45037 30.9986 8.55926 31.0401 8.70444C31.1023 8.87037 31.1334 9.13481 31.1334 9.49778V18.1311C31.1334 18.38 31.1231 18.5615 31.1023 18.6756C31.092 18.7896 31.0453 18.9244 30.9623 19.08C30.8171 19.36 30.4127 19.5 29.749 19.5C29.3446 19.5 29.0646 19.4689 28.909 19.4067C28.7534 19.3444 28.6238 19.2459 28.5201 19.1111C26.1868 16 24.652 13.9674 23.9157 13.0133V18.1311C23.9157 18.38 23.9053 18.5615 23.8846 18.6756C23.8742 18.7896 23.8275 18.9244 23.7446 19.08C23.5994 19.36 23.1949 19.5 22.5312 19.5C21.8883 19.5 21.4942 19.36 21.349 19.08C21.266 18.9244 21.2142 18.7844 21.1934 18.66C21.1831 18.5356 21.1779 18.3541 21.1779 18.1156V9.43556C21.1779 9.04148 21.2246 8.7563 21.3179 8.58C21.4216 8.39333 21.572 8.26889 21.769 8.20667C21.966 8.14444 22.2201 8.11333 22.5312 8.11333C22.8423 8.11333 23.086 8.14444 23.2623 8.20667C23.449 8.25852 23.5786 8.32074 23.6512 8.39333C23.6927 8.42444 23.812 8.55926 24.009 8.79778C26.1971 11.7741 27.6594 13.7393 28.3957 14.6933V9.43556C28.3957 9.04148 28.4423 8.7563 28.5357 8.58ZM40.7892 10.4C41.0588 10.9496 41.1936 11.5615 41.1936 12.2356C41.1936 12.9096 41.0588 13.5215 40.7892 14.0711C40.5196 14.6104 40.1722 15.0407 39.747 15.3622C38.8862 16.0259 37.9944 16.3578 37.0714 16.3578H35.127V18.1156C35.127 18.3541 35.1166 18.5356 35.0959 18.66C35.0855 18.7741 35.0388 18.9089 34.9559 19.0644C34.8107 19.3444 34.4062 19.4844 33.7425 19.4844C33.0166 19.4844 32.5914 19.2926 32.467 18.9089C32.4047 18.7326 32.3736 18.463 32.3736 18.1V9.46667C32.3736 9.22815 32.3788 9.05185 32.3892 8.93778C32.4099 8.81333 32.4618 8.67333 32.5447 8.51778C32.6899 8.23778 33.0944 8.09778 33.7581 8.09778H37.087C37.9996 8.09778 38.8862 8.42963 39.747 9.09333C40.1722 9.41481 40.5196 9.85037 40.7892 10.4ZM37.087 13.6044C37.3981 13.6044 37.704 13.4904 38.0047 13.2622C38.3055 13.0341 38.4559 12.6919 38.4559 12.2356C38.4559 11.7793 38.3055 11.437 38.0047 11.2089C37.704 10.9704 37.3929 10.8511 37.0714 10.8511H35.127V13.6044H37.087ZM54.32 8.53333C54.4029 8.68889 54.4496 8.82889 54.46 8.95333C54.4807 9.07778 54.4911 9.25926 54.4911 9.49778V18.1311C54.4911 18.8467 54.294 19.2667 53.9 19.3911C53.7029 19.4533 53.454 19.4844 53.1533 19.4844C52.8526 19.4844 52.614 19.4585 52.4377 19.4067C52.2615 19.3548 52.1266 19.2926 52.0333 19.22C51.94 19.1474 51.8674 19.0437 51.8155 18.9089C51.7637 18.7326 51.7377 18.463 51.7377 18.1V12.8889C51.4785 13.2104 51.1 13.7237 50.6022 14.4289C50.1044 15.1237 49.7881 15.5593 49.6533 15.7356C49.5185 15.9119 49.4252 16.0363 49.3733 16.1089C49.3215 16.1711 49.1918 16.2644 48.9844 16.3889C48.7874 16.503 48.5696 16.56 48.3311 16.56C48.1029 16.56 47.8903 16.5081 47.6933 16.4044C47.5066 16.2904 47.3718 16.1815 47.2889 16.0778L47.1644 15.9067C46.957 15.6474 46.5474 15.0978 45.9355 14.2578C45.3237 13.4074 44.9918 12.9511 44.94 12.8889V18.1311C44.94 18.3696 44.9296 18.5511 44.9089 18.6756C44.8985 18.7896 44.8518 18.9193 44.7689 19.0644C44.6133 19.3444 44.2089 19.4844 43.5555 19.4844C42.9229 19.4844 42.5289 19.3444 42.3733 19.0644C42.2903 18.9193 42.2385 18.7844 42.2177 18.66C42.2074 18.5356 42.2022 18.3489 42.2022 18.1V9.46667C42.2022 9.22815 42.2074 9.05185 42.2177 8.93778C42.2385 8.81333 42.2903 8.67333 42.3733 8.51778C42.5289 8.24815 42.9333 8.11333 43.5866 8.11333C43.8666 8.11333 44.1052 8.14963 44.3022 8.22222C44.5096 8.28444 44.6444 8.35185 44.7066 8.42444L44.8 8.51778L48.3311 13.1533C50.094 10.82 51.2711 9.28 51.8622 8.53333C52.0385 8.25333 52.4533 8.11333 53.1066 8.11333C53.7703 8.11333 54.1748 8.25333 54.32 8.53333Z" fill="white"/>
</svg>
